<svg width="36" height="36" viewBox="0 0 36 36" fill="none" xmlns="http://www.w3.org/2000/svg">
<path fill-rule="evenodd" clip-rule="evenodd" d="M18 36C27.9411 36 36 27.9411 36 18C36 8.05887 27.9411 0 18 0C8.05887 0 0 8.05887 0 18C0 27.9411 8.05887 36 18 36Z" fill="url(#paint0_linear_0_1051)"/>
<path d="M13.3025 23.13C12.4012 23.13 11.5952 22.9307 10.8845 22.532C10.1739 22.1247 9.61921 21.5657 9.22054 20.855C8.82187 20.1357 8.62254 19.321 8.62254 18.411C8.62254 17.501 8.82187 16.6907 9.22054 15.98C9.61921 15.2607 10.1739 14.7017 10.8845 14.303C11.5952 13.9043 12.4012 13.705 13.3025 13.705C14.2039 13.705 15.0099 13.9043 15.7205 14.303C16.4312 14.7017 16.9859 15.2607 17.3845 15.98C17.7832 16.6907 17.9825 17.501 17.9825 18.411C17.9825 19.321 17.7832 20.1357 17.3845 20.855C16.9859 21.5657 16.4312 22.1247 15.7205 22.532C15.0099 22.9307 14.2039 23.13 13.3025 23.13ZM13.3025 21.7C13.9005 21.7 14.4292 21.5613 14.8885 21.284C15.3565 21.0067 15.7162 20.621 15.9675 20.127C16.2275 19.6243 16.3575 19.0523 16.3575 18.411C16.3575 17.7697 16.2275 17.202 15.9675 16.708C15.7162 16.214 15.3565 15.8283 14.8885 15.551C14.4292 15.2737 13.9005 15.135 13.3025 15.135C12.7045 15.135 12.1715 15.2737 11.7035 15.551C11.2442 15.8283 10.8845 16.214 10.6245 16.708C10.3732 17.202 10.2475 17.7697 10.2475 18.411C10.2475 19.0523 10.3732 19.6243 10.6245 20.127C10.8845 20.621 11.2442 21.0067 11.7035 21.284C12.1715 21.5613 12.7045 21.7 13.3025 21.7ZM23.7 23.13C22.7987 23.13 21.9927 22.9307 21.282 22.532C20.5713 22.1247 20.0167 21.5657 19.618 20.855C19.2193 20.1357 19.02 19.321 19.02 18.411C19.02 17.501 19.2193 16.6907 19.618 15.98C20.0167 15.2607 20.5713 14.7017 21.282 14.303C21.9927 13.9043 22.7987 13.705 23.7 13.705C24.6013 13.705 25.4073 13.9043 26.118 14.303C26.8287 14.7017 27.3833 15.2607 27.782 15.98C28.1807 16.6907 28.38 17.501 28.38 18.411C28.38 19.321 28.1807 20.1357 27.782 20.855C27.3833 21.5657 26.8287 22.1247 26.118 22.532C25.4073 22.9307 24.6013 23.13 23.7 23.13ZM23.7 21.7C24.298 21.7 24.8267 21.5613 25.286 21.284C25.754 21.0067 26.1137 20.621 26.365 20.127C26.625 19.6243 26.755 19.0523 26.755 18.411C26.755 17.7697 26.625 17.202 26.365 16.708C26.1137 16.214 25.754 15.8283 25.286 15.551C24.8267 15.2737 24.298 15.135 23.7 15.135C23.102 15.135 22.569 15.2737 22.101 15.551C21.6417 15.8283 21.282 16.214 21.022 16.708C20.7707 17.202 20.645 17.7697 20.645 18.411C20.645 19.0523 20.7707 19.6243 21.022 20.127C21.282 20.621 21.6417 21.0067 22.101 21.284C22.569 21.5613 23.102 21.7 23.7 21.7Z" fill="white"/>
<defs>
<linearGradient id="paint0_linear_0_1051" x1="0" y1="0" x2="36" y2="36" gradientUnits="userSpaceOnUse">
<stop stop-color="#6CD97E"/>
<stop offset="1" stop-color="#12B312"/>
</linearGradient>
</defs>
</svg>
