<svg width="29" height="29" viewBox="0 0 29 29" fill="none" xmlns="http://www.w3.org/2000/svg">
<path fill-rule="evenodd" clip-rule="evenodd" d="M12.1917 2.12476C9.74388 2.12476 8.66477 2.34038 7.56946 2.92615C6.59426 3.4477 5.82294 4.21902 5.3014 5.19422C4.71562 6.28952 4.5 7.36864 4.5 9.81641V18.4331C4.5 20.8809 4.71562 21.96 5.3014 23.0553C5.82294 24.0305 6.59426 24.8018 7.56946 25.3234C8.66477 25.9091 9.74388 26.1248 12.1917 26.1248H16.8083C19.2561 26.1248 20.3352 25.9091 21.4305 25.3234C22.4057 24.8018 23.1771 24.0305 23.6986 23.0553C24.2844 21.96 24.5 20.8809 24.5 18.4331V12.4836C24.5 11.6869 24.4722 11.3284 24.378 10.9194C24.2846 10.5142 24.1329 10.1481 23.9125 9.79559C23.6899 9.4397 23.4561 9.16661 22.8927 8.60327L18.0215 3.73203C17.4581 3.16868 17.1851 2.93487 16.8292 2.7123C16.4766 2.49182 16.1105 2.34018 15.7053 2.2468C15.3634 2.16799 15.0568 2.13565 14.5 2.12717V2.12476H12.1917ZM12.1917 4.12476C9.85671 4.12476 9.17339 4.33642 8.51266 4.68978C7.886 5.02492 7.40017 5.51075 7.06503 6.13742C6.71167 6.79814 6.5 7.48147 6.5 9.81641V18.4331C6.5 20.768 6.71167 21.4514 7.06503 22.1121C7.40017 22.7388 7.886 23.2246 8.51266 23.5597C9.17339 23.9131 9.85671 24.1248 12.1917 24.1248H16.8083C19.1433 24.1248 19.8266 23.9131 20.4873 23.5597C21.114 23.2246 21.5998 22.7388 21.935 22.1121C22.2883 21.4514 22.5 20.768 22.5 18.4331V12.4836C22.5 12.3463 22.4992 12.2279 22.4976 12.1243L17 12.1248C15.6193 12.1248 14.5 11.0055 14.5 9.62476L14.5015 4.12721C14.4473 4.12632 14.3891 4.12569 14.3261 4.1253L12.1917 4.12476ZM16.6073 5.14624L16.5 5.03976V9.62476C16.5 9.87022 16.6769 10.0744 16.9101 10.1167L17 10.1248L21.5873 10.1268C21.5531 10.0923 21.5169 10.0559 21.4785 10.0175L16.6073 5.14624ZM9.5 20.1248C9.5 19.5725 9.94772 19.1248 10.5 19.1248H14.5C15.0523 19.1248 15.5 19.5725 15.5 20.1248C15.5 20.677 15.0523 21.1248 14.5 21.1248H10.5C9.94772 21.1248 9.5 20.677 9.5 20.1248ZM10.5 15.1248C9.94772 15.1248 9.5 15.5725 9.5 16.1248C9.5 16.677 9.94772 17.1248 10.5 17.1248H17.5C18.0523 17.1248 18.5 16.677 18.5 16.1248C18.5 15.5725 18.0523 15.1248 17.5 15.1248H10.5Z" fill="#818C99"/>
</svg>
